<mxfile host="app.diagrams.net" modified="2022-07-10T08:08:14.533Z" agent="5.0 (Windows NT 10.0; Win64; x64) AppleWebKit/537.36 (KHTML, like Gecko) Chrome/105.0.0.0 Safari/537.36" etag="Cr3aEtB3FwBBijgp63Wc" version="20.0.4" type="github">
  <diagram id="djn2jsg7rzLseytitFmK" name="Page-1">
    <mxGraphModel dx="1422" dy="754" grid="1" gridSize="10" guides="1" tooltips="1" connect="1" arrows="1" fold="1" page="1" pageScale="1" pageWidth="827" pageHeight="1169" math="0" shadow="0">
      <root>
        <mxCell id="0" />
        <mxCell id="1" parent="0" />
        <mxCell id="_adJFKcr0jbC-1n9ebkG-1" value="电梯随行线缆示意图：" style="text;html=1;align=center;verticalAlign=middle;resizable=0;points=[];autosize=1;strokeColor=none;fillColor=none;" vertex="1" parent="1">
          <mxGeometry x="35" y="50" width="140" height="30" as="geometry" />
        </mxCell>
        <mxCell id="_adJFKcr0jbC-1n9ebkG-2" value="" style="endArrow=none;html=1;rounded=0;startArrow=none;" edge="1" parent="1" source="_adJFKcr0jbC-1n9ebkG-16">
          <mxGeometry width="50" height="50" relative="1" as="geometry">
            <mxPoint x="160" y="480" as="sourcePoint" />
            <mxPoint x="160" y="80" as="targetPoint" />
          </mxGeometry>
        </mxCell>
        <mxCell id="_adJFKcr0jbC-1n9ebkG-3" value="" style="endArrow=none;html=1;rounded=0;" edge="1" parent="1">
          <mxGeometry width="50" height="50" relative="1" as="geometry">
            <mxPoint x="280" y="480" as="sourcePoint" />
            <mxPoint x="280" y="80" as="targetPoint" />
          </mxGeometry>
        </mxCell>
        <mxCell id="_adJFKcr0jbC-1n9ebkG-4" value="" style="shape=link;html=1;rounded=0;exitX=0.25;exitY=1;exitDx=0;exitDy=0;width=-10;" edge="1" parent="1" source="_adJFKcr0jbC-1n9ebkG-5">
          <mxGeometry width="100" relative="1" as="geometry">
            <mxPoint x="180" y="440" as="sourcePoint" />
            <mxPoint x="180" y="120" as="targetPoint" />
            <Array as="points">
              <mxPoint x="210" y="460" />
              <mxPoint x="190" y="460" />
              <mxPoint x="180" y="440" />
            </Array>
          </mxGeometry>
        </mxCell>
        <mxCell id="_adJFKcr0jbC-1n9ebkG-5" value="" style="rounded=1;whiteSpace=wrap;html=1;" vertex="1" parent="1">
          <mxGeometry x="210" y="370" width="50" height="70" as="geometry" />
        </mxCell>
        <mxCell id="_adJFKcr0jbC-1n9ebkG-6" value="1楼" style="text;html=1;align=center;verticalAlign=middle;resizable=0;points=[];autosize=1;strokeColor=none;fillColor=none;" vertex="1" parent="1">
          <mxGeometry x="120" y="385" width="40" height="30" as="geometry" />
        </mxCell>
        <mxCell id="_adJFKcr0jbC-1n9ebkG-8" value="4楼" style="text;html=1;align=center;verticalAlign=middle;resizable=0;points=[];autosize=1;strokeColor=none;fillColor=none;" vertex="1" parent="1">
          <mxGeometry x="125" y="145" width="40" height="30" as="geometry" />
        </mxCell>
        <mxCell id="_adJFKcr0jbC-1n9ebkG-9" value="3楼" style="text;html=1;align=center;verticalAlign=middle;resizable=0;points=[];autosize=1;strokeColor=none;fillColor=none;" vertex="1" parent="1">
          <mxGeometry x="120" y="225" width="40" height="30" as="geometry" />
        </mxCell>
        <mxCell id="_adJFKcr0jbC-1n9ebkG-10" value="2楼" style="text;html=1;align=center;verticalAlign=middle;resizable=0;points=[];autosize=1;strokeColor=none;fillColor=none;" vertex="1" parent="1">
          <mxGeometry x="120" y="305" width="40" height="30" as="geometry" />
        </mxCell>
        <mxCell id="_adJFKcr0jbC-1n9ebkG-12" value="" style="shape=crossbar;whiteSpace=wrap;html=1;rounded=1;direction=south;" vertex="1" parent="1">
          <mxGeometry x="150" y="360" width="20" height="80" as="geometry" />
        </mxCell>
        <mxCell id="_adJFKcr0jbC-1n9ebkG-13" value="" style="endArrow=none;html=1;rounded=0;" edge="1" parent="1" target="_adJFKcr0jbC-1n9ebkG-12">
          <mxGeometry width="50" height="50" relative="1" as="geometry">
            <mxPoint x="160" y="480" as="sourcePoint" />
            <mxPoint x="160" y="80" as="targetPoint" />
          </mxGeometry>
        </mxCell>
        <mxCell id="_adJFKcr0jbC-1n9ebkG-14" value="" style="shape=crossbar;whiteSpace=wrap;html=1;rounded=1;direction=south;" vertex="1" parent="1">
          <mxGeometry x="150" y="280" width="20" height="80" as="geometry" />
        </mxCell>
        <mxCell id="_adJFKcr0jbC-1n9ebkG-15" value="" style="endArrow=none;html=1;rounded=0;startArrow=none;" edge="1" parent="1" source="_adJFKcr0jbC-1n9ebkG-12" target="_adJFKcr0jbC-1n9ebkG-14">
          <mxGeometry width="50" height="50" relative="1" as="geometry">
            <mxPoint x="160" y="360" as="sourcePoint" />
            <mxPoint x="160" y="80" as="targetPoint" />
          </mxGeometry>
        </mxCell>
        <mxCell id="_adJFKcr0jbC-1n9ebkG-16" value="" style="shape=crossbar;whiteSpace=wrap;html=1;rounded=1;direction=south;" vertex="1" parent="1">
          <mxGeometry x="150" y="200" width="20" height="80" as="geometry" />
        </mxCell>
        <mxCell id="_adJFKcr0jbC-1n9ebkG-17" value="" style="endArrow=none;html=1;rounded=0;startArrow=none;" edge="1" parent="1" source="_adJFKcr0jbC-1n9ebkG-14" target="_adJFKcr0jbC-1n9ebkG-16">
          <mxGeometry width="50" height="50" relative="1" as="geometry">
            <mxPoint x="160" y="280" as="sourcePoint" />
            <mxPoint x="160" y="80" as="targetPoint" />
          </mxGeometry>
        </mxCell>
        <mxCell id="_adJFKcr0jbC-1n9ebkG-18" value="" style="shape=crossbar;whiteSpace=wrap;html=1;rounded=1;direction=south;" vertex="1" parent="1">
          <mxGeometry x="150" y="120" width="20" height="80" as="geometry" />
        </mxCell>
        <mxCell id="_adJFKcr0jbC-1n9ebkG-23" value="" style="shape=image;verticalLabelPosition=bottom;labelBackgroundColor=default;verticalAlign=top;aspect=fixed;imageAspect=0;image=data:image/png,iVBORw0KGgoAAAANSUhEUgAAAMgAAADICAYAAACtWK6eAAAAAXNSR0IArs4c6QAAGohJREFUeF7tnQuUHFWZx/9f9cxA5DGI5LG6YIBEkkAmXVU9iUlMTFyBDcj6WAcNYnR9geKqKByfu4JHd90FZRd5qPjaiMYliqwguyErjpGAmem61TORgGQS8bAqkxDN8DCZSff99tyeiYSQ6a6ud1ffOqdPT9L3u/f7/l/9uqrrvgj60ApoBSZVgLQ2WgGtwOQKaED02aEVqKGABkSfHloBDYg+B7QC/hTQVxB/ummrFlFAA9IiidZh+lNAA+JPN23VIgpoQFok0TpMfwpoQPzppq1aRAENSIskWofpTwENiD/dtFWLKKABaZFE6zD9KaAB8aebtmoRBTQgLZJoHaY/BTQg/nTTVi2igAakRRKtw/SngAbEn27aqkUU0IC0SKJ1mP4U0ID4001btYgCGpAWSbQO058CGhB/ummrFlFAA9IiidZh+lNAA+JPN23VIgpoQFok0TpMfwpoQPzppq1aRAENSIskWofpTwENiD/dtFWLKKABaZFE6zD9KaAB8aebtmoRBTQgLZJoHaY/BTQg/nTTVi2igAakRRKtw/SngAbEn27aqkUU0IC0SKJ1mP4U0ID4001btYgCGpAWSbQO058CGhB/uk1q1dXVdYxhGFPbgakVwzgOQPuzr0o7QH/+NxG1PfdztENWqz5w6IuAsef8H/NzPq8Q7TIMY5fjOE+EHE7LV6cB8XAK9PT05B599JE5zPRSKTENwFQDxlQGpoJ5GhOmkvp7/HWMhyqjKsJg7AJhF4DdDOwixi4i2iWB3URyF5D7fS6XG+rr69sTlRNZqlcDckg2Fy1adHy5XJ7LXJlLRHOYMZcIc8B4WZaSPhHLXgKGAOyQ4CHAqP5NREOO4/w+g/H6CqllAbEsa67BvATEJkBzGJgL4MW+VMye0Z9QhYe3gmkLDKNvZGSkNDQ0NJq9UGtH1BKA2Lb9AinlYgNYDKKXA7xw4nao1fIdJF5JwBYG9TFQMozKQLE4UALAQSpNu20mAVm8+MwTD+zveBWIFkrwQgIUEFPSnowm9G8XAQKge2CUNxaLg79swhhqupwZQBQUo6PtqwhYBcYqEJ2YtWSlPx66D8QbpcRG13UfSL+/9T1sakA0FPUTnGCJAYA2kiHvKRZLGxP0I1DTTQeIbdvtzJUL9ZUiUN7jNh4AYy0MY22z9dU0DSC2bf8FpFwDwhoA8+LOsG4vFAV+ewgoD4dSY8SVpB4Q27bng3kNoF7VTjp9NL8CowCtBZG6otyX5nBSC4ht2ysPAcNIs4jatyAK0A/JkDen9XdK6gApFBYsZDY+AcZrg8iubZtNAbopVy5f2zc4+Os0eZ4aQFasWNH21FMjCoxPADgqTSJpX2JT4HcEurYoxHWxtVinoVQAYtv584npk6x6uvXR8goQsEmCrhFC3JW0GIkCop5MMctPEPD+pIXQ7adPAQa+QWR8NMlHw4kBYtv5i8B0NYBZ6UuN9igtChBQZJKXO85AIk+7EgHEts2PgfHPaUmC9iP1CjwN4ssdp/S1uD2NHRDbNG8C4b1xB6rby4ICdK0jxJVxRhIbILZtnwKu3ALQOXEGqNvKmgJ8F8O4XAihJnhFfsQCiGmayw3CNwCcHnlEuoFWUGBIMi51XfcnUQcbCyC2ZWZ6Uk3USdL1H1kBR7iRn7+RN6BC04DoUzwKBTQgUaiq68yMAhqQzKRSBxKFAhqQKFTVdWZGAQ1IZlKpA4lCAQ1IFKrqOjOjgAYkM6nUgUShgAYkClXjr1P1AY0vPk0Yg5xYmJp4YkFqOrgw9cF35aFa4Lpj/J3H35nG3w3198HPqu+xPKqPX7b6LWpA6muUVIlnAB4m0DBXF4fmYSYaJqZdTHJYShpWq62PjY0Nb9269Y9ROjl//vwXdnR0TJdSTjMMnk5sTGfiacQ8nZmmE2Eag6cDND3hhbVDl0EDErqkDVTI/AcQtqs1ahnj70RyqKOjsv2BBx78QwM1paaoWkdsbCw3m9lQUwxmETC7Ot2AMbsZF9rTgMRxahGGwVRkyCKA7c0OgV/JDoNnNsEogLgAhrrypPLQgISflr0g9EOqSThUzOVy/f39/Y+F30x2auzu7j65Uql0E3MBBhQw3QBOSEOEGpDAWaDHCPJHYLpPEhXjGiId2O2UV2BZ1iyDucAGlgB4DRinJuGyBsSH6gz0G2pNWCnv6C+V+n1UoU0aVMCyrC5iXgXi1wD0igbNfRfXgHiT7hkC7pWge9sqlbv7BgYe8WamS0WhwMKurlPLbW1nA3wOAecCODaKdlSdGpBayhI2MtO6crn848HBQbUnnz5SpoBt2ycx8wVEvBqMs8N2TwPyfEWfAWMdDOO7juP8NGzB/da3cOHCF/Ho6IyyYcxQfRGQNIOIZ0jQDBrvf3gBmDtgTHTwjXf0TXQEPu9v5YbaxfbQnW2f05l46K63DN4DUv0xrPphHlf9MTkph2UuN7xv377hbdu2Pe03rjDtqkvJSnkRCKvD6o/RgBzMEOFBYlpntJW/29cX79KU+Xz+hHZgpsxhJjNmGjBeysBMAv8lM2aAMAOA2s45rYcCZJiBYQO8k4m2k8R2SfRIe3v79i1btjwZp+MLF3adKsttF/H4VeXMIG1rQEA/Zsh1QpTWARM7iAdRtIZtd3f3aZVKZbkBLFAAgHgmGDPT8kgzorDVDoPDIDyiOkOJsZ2JHmkrl90Y1sg1LCu/mmCsBvh8P/G1LiCMXgJuLLru9/0I58WmusstsJyZl4OqjysVDPp4VoHHAN7EMDblpOzrL5XUhp2RHAXTfCMDl4GwopEGWhEQwaAbhBDfbEQoL2ULhcIZzOVlxFjCMJYAfIYXO13mzwrsAmHTRCdr/5QpU/o3b978VJj6WJb1dwRWy9BaXuptJUC2g/jG006bfcP69esrXsTxUqb6wxDyVZBYCcJSLza6jEcFCGo82gaANxhG+4b+/v7HPVrWLNbT05PbuXP7+8F0GcbHik16tAIgfwTji2Pl8o1hjHo1TfPFRPQqgFcSYWVSPbxhnChNVofqi9ogQRuYeYPrur8J6n91lHJbm7rt+jCAFx6pvowDQreB6LOO42wNIqb6xtmxY8dqAt4M8Kv13iJB1AzF9oC6qhCMDZTL/VfQsW6FQuEsyMqnGHjT4d5lFZBHGfxPQpRuCZKOfD4/O5cj9ajwzQDmBqlL20amwF4GbgXoO0KIXwRppWCa72QDnzz0riB7gBC+njtQ+VyQR4iWZZ1LzKtBVTD0TlRBzroYbQm4XY6DcrvfZvP5/Mw2Ax9n0HtUHVkCpESMzxdd93t+xbGs/LsJ9FYAy/zWoe1SocAvCPSdspS3lkqlvX48sizrTQT+uCPcvB/7Rmximc+sxuT43SXIsqwLJx79aTAayWz6yz4Gwk0jI09dNzQ0NNqou0HOqUbaigWQRhw6WNayrL8e35rNXy+rnzZjshkBMPHiEcAYAav3g/9X9aKz+iLqBGQnoN4n/m/8PUuH6vu6TghxaxqDSh0gpmkuNhQYhIvSKFiDPo2A0MfM9xsSvcVSqbdB+yMWLxTyS7lCryDCUgbU/IsjPgYNo6246mDgR4bk68LSKCy/UwPI0qVLjxvd98xnGPShsIJLoJ79INxFTP2Qsi+uZKsvlRzRy5l5MQgXADg6gdhDapJuAtEXHcfZEVKFgapJBSCFQv48lvQZtVNCoGiSM34YhO+q+SlJT+tV02En5l+oK/Cc5CQJ1PJuEF/lOKWbAtUSgnGigMybN69jylFHXQ3Cx0KIJfYqGPhvg7Hu2M7Odb29veXYHajR4IoVK9qeHhlZLQmqE3VVmnzz6ovaBvr44zsvSVLbxAAxTfOvDEDB0XxjpAhrmelrQoife012kuUsy1pGwCUAvyVJP3y2PQAyLnEcZ4tP+0BmiQBiWfmrCPTpQJ4nZMyg9wshbkyo+UDN2qb5GRD+IVAlSRkTX5bELVfsgNi2+TUw3pmUzgHafYIMeX6xONAXoI7ETW073wM2vg7wcYk706AD6pZLCDfWcyd2QCwrfyWB/rVBbZItTrjbcVxfs968OD6xvu6JROUXqfLMbXvGxsb+EMYI58nat23TBSPynmgv8Xsuw/iI47pf9Fw+hIKxA6J8ti3rmwC/PQT/I6+CwVcLUboqaEO2bc8nKbvZQDck5oOgYDj4MiapXwLYU30x9hBxiQn3MxuuEOKhoD41060ugb9aFKVLgsbcqH0igCxadNb0Awfa7yRUl7FM8/ELR7iL/ThomuY8Ir6QUF2uswCqrm4S5vE7MPpZQcN0m+u62/xUblv5/wToQj+2cdkw1JcCXue67u642jzYTiKAVK8i9oKVYOPOsJaAiUC4xxzhntJovdV7fEk9IPQ0ahuoPGM9DF7vOKX1jdZjW+YggPmN2sVU/mmQscpxnPtiau85zSQGiPLCsvKXEeiGJAKv06YEVZY4zqDnR4vV2xWiNwZdyiawFoQHmfn7jdwW2rZ9Olj+CkAucPthV8B4r+O6Xw67Wq/1JQpI9UpiWWpe8zleHY6jHIPf43VC16JFi44vl8e+BMaaOHzz2gYD/1suV97iddVJy7JeT2DfczW8+tVYObrHEUItX5rYkTggBdN8KxPWJqbAYQ038qO8O5/PS4N+BuD4tPh/mB/7QNzjOKUfe/HPsvKfJlDgBxJe2vJShhhriq77bS9loyqTOCDjV5H8kwCl4bn8UK6t/eV9fX3qyVHNo5meAHmFXi2hWikfUFNj1Q5USR9POsJNfGh/SgAx1SPL5AfWEX/IcUr/Xu/MsG3zA2DULVevnjg/Z9AqIcT/1GvTtvMfBNO/1SsX+eeEBx3HPSvyduo0kBJA8ncC9JokxSCgWBTuonpLnFqWdTGBE73s+9WJQcs9jB8zCpa5hdXj6UQPvssRJTV0P9EjFYBYVv6zBPpkkkoQ421F1635W6iQz69gg+4GMCVJXwO0/SQZckWxOODWqqNgmmuY8B8B2glsyuDPCVH6VOCKAlaQCkDGxwfRbQFj8W/O2Oi4bt0naQXL7E/+m9V/mMpy4kpZt4PWNs17QOHv6eHZe+IL/fTpeK7fY8FUALJwwYKXVXKGeg6fyMGgvxFCqE7LSQ/bzr8NTN9KxMGwGyV+u+OUal4hLMu6gMA/Crtpr/XlKvKMNOwWlgpAlGi2Zf4poVuX3ccd33lKb2/v/pq3HZb5MwaWe01wmssRsKko3FfW8nHx4sVTxkb3qx2AqwMoYz72OcJ9QcxtHrG51ABSsMz7GfA17imIkAx8TwhX7Xo06VFdnp/Q8BCOIH5FbUuMnnrbS9i2eQcYr43al8PrJ+CBonDVlhSJH6kBxLbNm8G4NHZFPAxlsCzz7madtjqZnmq6sBDuebX0tu38FWC6JvacEL7sOO57Y2/3CA2mBhDLyr+dQKHvC1JXZDLmOo7z8GTlCoWus1jmAi2wXdeHhAoYks1aG+NUt3cGD8TtHjHeWXTdb8Td7pHaSw0gEwPmhmIVhfGI47o1N9IpWNYlDE5ssFyUejD4ciFKNTsFbcvaAfBpUfrxvFssIzenWCwm9tDmUH9SA4hyyrbMX8e7FRrd5AihNmqZ9LCtvFqdvBkXO/BwTtMdjhCvrxm/ad4Cwrs8VBZOEcb/Oa57cjiVBa8lZYDEO9OQQW8QQvyw9gmSV9ssnxhc6lTWsNcRbs1VGS3LegOBfxCb94z1juumZgJXugCx8+8DU2wrhjBogRBCTRY64mHbXYvAuUD7WsR2YvlsqN7wk7h/hxDow0UhrvMZTuhmqQKkO5/vlgbFtmpIW/uBGVu2/HJ4MlVjHLE7AvAeMD1R9YX4JIBU/0Pko1nrjfRV06PLB9pD2X/Qy9krGUtc133AS9k4yqQKkInfIbGN7K23AYtlmV8n4B0RJGIvQL0guVFKWj/ZXOvFi888cXS0fVX1ETNjVRS3el6W0rEtkyPQ4EhVPuwIN1W7haUPENv8PBgfjTwhjGHHdWfU/P1hm/eAQx2PtI/BX6pU+PqBgYHfNhLjggULXpLL0QcI9PehjjggbHSc2uPQbNN8HISwF514fviEf3EcN1XL0KYOkOr2B4T7Gzl5fJYddIS7oCYgVv5hgMLZT52xlom+UOs3j5c41G8CgD8+vmlpGAf/yhGlmnNxbMtUfSFdYbRWq4603V5V73ajDtpP/bZlbop+q7X6851ty3wGQPAxQR566xvVybasGwF+X6N2Ryj/J0e4x9T+oohl3YCfO8JN3Vi3dAJimx8B49oQkj9pFQx8Wwh30oUW1BZfYBl4HSbJeLXruj+JIhbbzp8PprsC103G1Fpb5FmWuZYAtT9kdAfhCsdxvxBdA/5qTiUg1T0uwOrHepu/sLxY0bWOEFdOVrJQWGCyNISXmiYrw+DrhCh9OEgd9WxtO38RmL5Tr1ytz8mQVq1JVLZlXQPwFUHaqGNbZtDcpPdWOZKPqQREOWpZ5vcJ+NuoklLv8ebE7MGf+m2fwLcWRSnab90J52zbvB4M9ePd10GSV9baDSvqx90M/EAI942+nI/YKLWARL0cUMSAbJeMpXEtlWma5lSDsBnAbD/nS9KApGF5n8l0Sy0gPT09uZ07htTc6UiWxIwSEAJdWhTiK35OVr82QQZVJgzI1tNOn2WuX7++4jf2KO1SC4gKumBZlzM4kuXuowOk/tOxqBLqd5XKJAFJ29CSw3OTakDy+fwJOYPUVWRm2CdVVIAw6B1CiPjntYyvdfxuAn21Ua0SBOTRimSzVCrtbdTnuMqnGhAlgm2b/wjG1WELEiEgs5N6GmNZ1lwCN7wNQmKAED7tOK7a3Ti1R+oB6e7uPllWyuoqEuriAdEAwjsdUTo9yWzblvkogJc24kNCgOwxcm1mf3+/WhgitUfqAaleRSJ4Dh8FIGl4XOnn8XgygNTuh0oLMU0BiNqtySCoq0hHWMJFA0jyqwH6WaUyAUDGJMP0uytWWOeAl3qaAhAViGWZXx7f6zucIwpA0vA830//UdyAMPAVIdz4V7Dxceo0DSCFQtcZLHM/BzDVR5zPM4kEEMnnF0sltXZvYkchnz+PDfK0H8hBJ2MGZDcZlWXF4mAqFmWol6imAWT8iVZ46zRFAkgKpov66TuKFRDiKx2nFOlA1HonfSOfNxUgKrBCSEuARgFIGm4d/NyKxgWIlyVPGzl54yjbfIAU8uexbOwW4khCRgEIGL2O666MI3GTtWGb5k9BWNGID7EBYvD5xWKyt6CN6KLKNh0g47dawZcpjQQQIPFFl23L3Afg6EZOhFgASdFyog1p00jhtJRd2NV1aqWt+oP9JX59iggQJDlt1O8Q/RgA+W2uXFnWNzioFgZsqqMpryATV5FA+wRGBUiSg+9snzMxIweE8EHHca9vKjImnG1aQJT/lmVuJODVfoSPChAAOyRjueu6v/Pjl18b0zRfbBDUXP6Gh7pECYjar10I92y/cSVt19SAdOfzS6RBGwAc26iQDL5KiNKkgyD93q6M+1F/zd9G/a1XPsgiDhEC8rQh+dz+UimOVWrqSeTr86YGpHqrZZqXgnBzo9FHeAUZR8TDBjWN+jxZedvOvw5MNdcYrtVWZIBEsJpLWJp5rafpAZn4PdLw5jtRAwLwUxUJu1QqbfeaDD/luru7Z8hKWe1fcpIf+yrMUcxJb9KnVodrmAlA5s2bd+zRRx+1gQDP23ZFD0hV6t84wg19stehSbQtswSg5gJ49cAJGxAG7t+/f/Tcbdu2PV2v7bR/nglAlMjVEb8GbgPjTC+ixwQIouw8tG3zl17jje0Wi/CglLiwGUbqejlPMgNIo5DEBohyjNFblvLiRtfjnSyBjX4Z1DsRQruCZAyO6u1nPfGa7XOvJ0+sgIyLODixkFygvdarezkSXRHGleNgbkMBJINwZBIQr1eSBACpno+qXwCg64UQdzby5WNZ1gUAf8Bvv0+kt1gZhSOzgHiBJNp+EE+n/uMM9BLx7UQ8RNTxhJRyj7I0DONFzGMnSZk7lZhXgbAqyLCaet4EuoJkGI5MA1IPkqSuIPVO1iQ+9w1IxuHIPCC1IEnBFSQJFo7Ypi9AWgCOlgDkz5AAXwVh6cEzRF9BnmWlUUAIeKDCeFdWHuXW/H2Wmq+xiB2ZNWvWUZ2dx11zcBV0fQXxCwjdcvSUKR/ZvHnzUxGnLBXVZ+4xbz1VLcu6mMBfYPDNQpSumqx8sMGK9bxI1+eeryBNPGzdr+ItB4gSyrbt05krF0c3mtdvOpKx8wIIYGwSQtybjIfJtdqSgHiRW19BnlWpq6tr2uDg4C4vumWtjAZkkoxqQLJ2qvuLRwOiAak73N3fqZUNKw2IBkQDUoNlDYgGRAOiAfF3uZ83b17HlCkda8CkdpDt8ldLWq1oJ5i/dVxn5zW9vb370+pl0n7pK4jHDHSb5isrhNUErAEwxaNZ2oqNEnCHBN0mhLg9bc6l0R8NSINZsW37FKByDthYCuIlYLyswSriLU54kJg3g2kLtZV7+/u37ozXgeZuTQMSMH+2bc9hriwzgOUMWtbo9mcBm3++OUGtXngvwPcCuS2O4+wIvY0WqlADEnKyTdNU+5fMzRHNZWCu+htg9X5yyE09BtBDAB4i4KEKc/Vv13V3h9xOS1enAYkp/WrllWM6OubKHKYx4wQidKp3AJ0G1Dt1cvW9Og96L8AjsvqOESLsZR5/NyrY9czY2ENZWDEkJukDNaMBCSSfNs66AhqQrGdYxxdIAQ1IIPm0cdYV0IBkPcM6vkAKaEACyaeNs66ABiTrGdbxBVJAAxJIPm2cdQU0IFnPsI4vkAIakEDyaeOsK6AByXqGdXyBFNCABJJPG2ddAQ1I1jOs4wukgAYkkHzaOOsKaECynmEdXyAFNCCB5NPGWVdAA5L1DOv4AimgAQkknzbOugIakKxnWMcXSAENSCD5tHHWFdCAZD3DOr5ACmhAAsmnjbOugAYk6xnW8QVSQAMSSD5tnHUFNCBZz7COL5ACGpBA8mnjrCugAcl6hnV8gRTQgASSTxtnXQENSNYzrOMLpIAGJJB82jjrCmhAsp5hHV8gBTQggeTTxllXQAOS9Qzr+AIpoAEJJJ82zroC/w9FxdZfROKqhwAAAABJRU5ErkJggg==;" vertex="1" parent="1">
          <mxGeometry x="210" y="350" width="20" height="20" as="geometry" />
        </mxCell>
        <mxCell id="_adJFKcr0jbC-1n9ebkG-25" value="" style="endArrow=none;dashed=1;html=1;rounded=0;strokeWidth=2;entryX=1;entryY=0;entryDx=0;entryDy=0;entryPerimeter=0;strokeColor=#3333FF;" edge="1" parent="1" target="_adJFKcr0jbC-1n9ebkG-16">
          <mxGeometry width="50" height="50" relative="1" as="geometry">
            <mxPoint x="110" y="360" as="sourcePoint" />
            <mxPoint x="110" y="290" as="targetPoint" />
            <Array as="points">
              <mxPoint x="170" y="360" />
            </Array>
          </mxGeometry>
        </mxCell>
        <mxCell id="_adJFKcr0jbC-1n9ebkG-26" value="" style="endArrow=none;dashed=1;html=1;rounded=0;strokeColor=#3333FF;strokeWidth=2;entryX=0;entryY=0.5;entryDx=0;entryDy=0;" edge="1" parent="1" target="_adJFKcr0jbC-1n9ebkG-23">
          <mxGeometry width="50" height="50" relative="1" as="geometry">
            <mxPoint x="170" y="280" as="sourcePoint" />
            <mxPoint x="180" y="280" as="targetPoint" />
            <Array as="points">
              <mxPoint x="180" y="280" />
              <mxPoint x="180" y="440" />
              <mxPoint x="190" y="460" />
              <mxPoint x="210" y="460" />
              <mxPoint x="220" y="440" />
              <mxPoint x="200" y="440" />
              <mxPoint x="200" y="380" />
            </Array>
          </mxGeometry>
        </mxCell>
      </root>
    </mxGraphModel>
  </diagram>
</mxfile>
